# AST/ASF file generated using VICON BodyLanguage
# -----------------------------------------------
:version 1.10
:name VICON
:units
  mass 1.0
  length 0.45
  angle deg
:documentation
   .ast/.asf automatically generated from VICON data using
   VICON BodyBuilder and BodyLanguage model FoxedUp or BRILLIANT.MOD
:root
   order TX TY TZ RX RY RZ
   axis XYZ
   position 0 0 0  
   orientation 0 0 0 
:bonedata
  begin
     id 1 
     name lhipjoint
     direction 0.535335 -0.74333 0.401095 
     length 2.04549 
     axis 0 0 0  XYZ
  end
  begin
     id 2 
     name lfemur
     direction 0.34202 -0.939693 0  
     length 6.95643  
     axis 0 0 20  XYZ
    dof rx ry rz
    limits (-160.0 20.0)
           (-70.0 70.0)
           (-60.0 70.0)
  end
  begin
     id 3 
     name ltibia
     direction 0.34192 -0.939729 0   
     length 5.55969   
     axis 0 0 20   XYZ
    dof rx
    limits (-10.0 170.0)
  end
  begin
     id 4 
     name lfoot
     direction 0.216943 -0.596046 0.773088   
     length 2.27918   
     axis -90 7.62852e-016 20   XYZ
    dof rx rz
    limits (-45.0 90.0)
           (-70.0 20.0)
  end
  begin
     id 5 
     name ltoes
     direction 1.53519e-011 -4.21748e-011 1   
     length 1.05562   
     axis -90 7.62852e-016 20   XYZ
    dof rx
    limits (-90.0 20.0)
  end
  begin
     id 6 
     name rhipjoint
     direction -0.576368 -0.719173 0.38806   
     length 2.1142  
     axis 0 0 0  XYZ 
  end
  begin
     id 7 
     name rfemur
     direction -0.34202 -0.939693 0   
     length 7.07928   
     axis 0 0 -20   XYZ
    dof rx ry rz
    limits (-160.0 20.0)
           (-70.0 70.0)
           (-70.0 60.0)
  end
  begin
     id 8 
     name rtibia
     direction -0.34202 -0.939693 0   
     length 5.79974   
     axis 0 0 -20   XYZ
    dof rx
    limits (-10.0 170.0)
 end
 begin
     id 9 
     name rfoot
     direction -0.189288 -0.520065 0.832888   
     length 2.42173  
     axis -90 -7.62852e-016 -20   XYZ
    dof rx rz
    limits (-45.0 90.0)
           (-20.0 70.0)
  end
  begin
     id 10 
     name rtoes
     direction -1.53574e-011 -4.21658e-011 1   
     length 1.14469   
     axis -90 -7.62852e-016 -20   XYZ
    dof rx
    limits (-90.0 20.0)
  end
  begin
     id 11 
     name lowerback
     direction -0.00135702 0.993803 0.111144   
     length 1.91308   
     axis 0 0 0   XYZ
    dof rx ry rz
    limits (-20.0 45.0)
           (-30.0 30.0)
           (-30.0 30.0)
  end
  begin
     id 12 
     name upperback
     direction -0.0056745 0.999813 0.0184631   
     length 1.9212   
     axis 0 0 0   XYZ
    dof rx ry rz
    limits (-20.0 45.0)
           (-30.0 30.0)
           (-30.0 30.0)
  end
  begin
     id 13 
     name thorax
     direction -0.00733434 0.999426 -0.0330788   
     length 1.94196   
     axis 0 0 0   XYZ
    dof rx ry rz
    limits (-20.0 45.0)
           (-30.0 30.0)
           (-30.0 30.0)
  end
  begin
     id 14 
     name lowerneck
     direction 0.0563074 0.996944 -0.0541571   
     length 2.34257   
     axis 0 0 0   XYZ
    dof rx ry rz
    limits (-20.0 45.0)
           (-30.0 30.0)
           (-30.0 30.0)
  end
  begin
     id 15 
     name upperneck
     direction -0.0544519 0.976166 -0.210085   
     length 2.32506   
     axis 0 0 0   XYZ
    dof rx ry rz
    limits (-20.0 45.0)
           (-30.0 30.0)
           (-30.0 30.0)
  end
  begin
     id 16
     name head
     direction -0.0226035 0.997615 -0.0652205  
     length 2.3648  
     axis 0 0 0   XYZ
    dof rx ry rz
    limits (-20.0 45.0)
           (-30.0 30.0)
           (-30.0 30.0)
  end
  begin
     id 17 
     name lclavicle
     direction 0.92109 0.381297 -0.0787716  
     length 4.0487  
     axis 0 0 0   XYZ
    dof ry rz
    limits (-20.0 10.0)
           (0.0 20.0)
  end
  begin
     id 18 
     name lhumerus
     direction 1 -4.48986e-011 3.56724e-027   
     length 4.94991   
     axis 180 -30 -90   XYZ
    dof rx ry rz
    limits (-60.0 90.0)
           (-90.0 90.0)
           (-90.0 90.0)
  end
  begin
     id 19
     name lradius
     direction 1 -4.48981e-011 8.62147e-027   
     length 2.7606   
     axis 180 -30 -90   XYZ
    dof rx
    limits (-10.0 170.0)
  end
  begin
     id 20
     name lwrist
     direction 1 -4.48989e-011 1.59799e-026   
     length 1.3803   
     axis -1.17785e-014 90 90   XYZ
    dof ry
    limits (-180.0 0.0)
 end
  begin
     id 21 
     name lhand
     direction 1 -4.48896e-011 3.19599e-026   
     length 0.843936   
     axis -2.03931e-014 90 90   XYZ
    dof rx rz
    limits (-90.0 90.0)
           (-45.0 45.0)
  end
  begin
     id 22 
     name lfingers
     direction 1 -4.48887e-011 6.39197e-026   
     length 0.680403   
     axis -4.07862e-014 90 90   XYZ
    dof rx
    limits (0.0 90.0)
  end
  begin
     id 23
     name lthumb
     direction 0.707107 -6.348e-011 0.707107   
     length 0.976926   
     axis -90 45 2.85299e-015   XYZ
    dof rx rz
    limits (-45.0 45.0)
           (-45.0 45.0)
  end
  begin
     id 24 
     name rclavicle
     direction -0.951104 0.307692 -0.026953   
     length 4.21801  
     axis 0 0 0   XYZ 
    dof ry rz
    limits (-10.0 20.0)
           (-20.0 0.0)
  end
  begin
     id 25 
     name rhumerus
     direction -1 -4.4896e-011 -1.8171e-018  
     length 4.32982   
     axis 180 30 90   XYZ
    dof rx ry rz
    limits (-90.0 60.0)
           (-90.0 90.0)
           (-90.0 90.0)
  end
  begin
     id 26 
     name rradius
     direction -1 -4.48959e-011 8.25165e-027   
     length 3.20057   
     axis 180 30 90   XYZ
    dof rx
    limits (-10.0 170.0)
  end
  begin
     id 27 
     name rwrist
     direction -1 -4.48997e-011 1.59799e-026   
     length 1.60029   
     axis -1.17785e-014 -90 -90   XYZ
    dof ry
    limits (-180.0 0.0)
  end
  begin
     id 28
     name rhand
     direction -1 -4.49023e-011 3.19599e-026   
     length 0.960433   
     axis -2.03931e-014 -90 -90   XYZ
    dof rx rz
    limits (-90.0 90.0)
           (-45.0 45.0)
  end
  begin
     id 29
     name rfingers
     direction -1 -4.48802e-011 6.39197e-026   
     length 0.774326   
     axis -4.07862e-014 -90 -90   XYZ
    dof rx
    limits (0.0 90.0)
  end
  begin
     id 30
     name rthumb
     direction -0.707107 -6.34876e-011 0.707107   
     length 1.11178   
     axis -90 -45 -2.85299e-015   XYZ
    dof rx rz
    limits (-45.0 45.0)
           (-45.0 45.0)
  end
:hierarchy
  begin
    root lhipjoint rhipjoint lowerback
    lhipjoint lfemur
    lfemur ltibia
    ltibia lfoot
    lfoot ltoes
    rhipjoint rfemur
    rfemur rtibia
    rtibia rfoot
    rfoot rtoes
    lowerback upperback
    upperback thorax
    thorax lowerneck lclavicle rclavicle
    lowerneck upperneck
    upperneck head
    lclavicle lhumerus
    lhumerus lradius
    lradius lwrist
    lwrist lhand lthumb
    lhand lfingers
    rclavicle rhumerus
    rhumerus rradius
    rradius rwrist
    rwrist rhand rthumb
    rhand rfingers
end

#!OML:ASF C:\KaitlinTest1\Natural Motions\Nikki\Session 2\Nikki.ASF
:FULLY-SPECIFIED
:DEGREES
307
root -12.7781 19.5304 5.14695 -231.284 91.4908 -242.148
lowerback -10.2165 -1.11215 0.853891
upperback -7.66431 -1.20437 -1.38
thorax -2.30551 -0.524409 -2.01069
lowerneck -13.0351 -13.0084 -7.81586
upperneck 4.80832 44.677 5.86419
head 168.628 53.5542 -38.0059
rclavicle -2.06736e-014 -3.18055e-015
rhumerus -42.8306 25.33 -105.672
rradius 78.1719
rwrist -4.93159
rhand -38.1437 9.95589
rfingers 7.12502
rthumb -11.1779 -19.7264
lclavicle -2.06736e-014 -3.18055e-015
lhumerus -29.4525 -18.2527 87.9632
lradius 71.3413
lwrist 3.04013
lhand -36.6148 -0.104524
lfingers 7.12502
lthumb -9.70303 29.652
rfemur -17.6944 -15.5528 20.8496
rtibia 22.1237
rfoot 12.4054 20.3864
rtoes 3.37139e-013
lfemur -12.4588 7.78146 -16.3864
ltibia 6.46901
lfoot 27.0114 -10.3499
ltoes 3.65764e-013
308
root -12.7654 19.4301 5.15823 -235.014 91.5611 -245.906
lowerback -10.5104 -1.14054 0.842861
upperback -7.65067 -1.23711 -1.37829
thorax -2.13251 -0.53733 -2.01073
lowerneck -12.8891 -13.0226 -7.77181
upperneck 4.83141 44.5569 5.87059
head 168.515 53.6617 -38.0268
rclavicle -2.95195e-014 -2.38542e-014
rhumerus -43.0306 25.0627 -105.605
rradius 78.5826
rwrist -4.87191
rhand -38.3492 9.89842
rfingers 7.12502
rthumb -11.3761 -19.773
lclavicle -2.95195e-014 -2.38542e-014
lhumerus -29.6071 -18.1165 87.7107
lradius 71.5513
lwrist 2.88117
lhand -36.6259 0.340118
lfingers 7.12502
lthumb -9.71376 30.0961
rfemur -17.6552 -15.5736 20.9703
rtibia 22.0695
rfoot 12.4411 20.1702
rtoes 1.78111e-013
lfemur -12.5446 7.64908 -16.1587
ltibia 6.47664
lfoot 27.1827 -9.79692
ltoes 1.52667e-013
309
root -12.7497 19.3095 5.16851 -235.374 91.6974 -246.176
lowerback -10.7603 -1.11199 0.875366
upperback -7.57848 -1.20229 -1.42119
thorax -1.92138 -0.520395 -2.07554
lowerneck -12.7278 -13.0592 -7.64406
upperneck 4.83955 44.33 5.89179
head 168.337 53.9397 -38.0982
rclavicle -3.37934e-015 1.35174e-014
rhumerus -42.9682 24.6356 -105.558
rradius 78.7801
rwrist -4.73293
rhand -38.5827 9.99009
rfingers 7.12502
rthumb -11.6013 -19.6688
lclavicle -3.37934e-015 1.35174e-014
lhumerus -29.7325 -18.0009 87.4033
lradius 71.7054
lwrist 2.99504
lhand -36.9527 0.246828
lfingers 7.12502
lthumb -10.029 29.9879
rfemur -17.5116 -15.8474 21.1393
rtibia 22.0308
rfoot 12.418 20.2342
rtoes 1.11319e-013
lfemur -12.5085 7.61533 -15.9258
ltibia 6.59172
lfoot 27.1858 -9.16738
ltoes 1.7175e-013
310
root -12.7418 19.1836 5.17869 -242.33 91.7221 -253.075
lowerback -10.8602 -1.16785 0.883932
upperback -7.58431 -1.27406 -1.46038
thorax -1.87788 -0.556053 -2.12922
lowerneck -12.5249 -13.0772 -7.55081
upperneck 4.93359 44.3666 5.98927
head 168.406 53.8379 -38.0344
rclavicle 2.10712e-014 8.74653e-015
rhumerus -43.9996 24.2969 -105.523
rradius 79.6661
rwrist -4.5694
rhand -38.8181 10.2764
rfingers 7.12502
rthumb -11.8283 -19.3695
lclavicle 2.10712e-014 8.74653e-015
lhumerus -29.9608 -17.9152 87.1689
lradius 71.8478
lwrist 3.21059
lhand -37.0476 0.252497
lfingers 7.12502
lthumb -10.1205 29.9891
rfemur -17.3746 -15.9622 21.2202
rtibia 22.0493
rfoot 12.4816 19.8463
rtoes -1.04958e-013
lfemur -12.5529 7.34894 -15.6887
ltibia 6.76053
lfoot 27.2258 -8.56231
ltoes -2.09917e-013
